<?xml version="1.0" encoding="UTF-8" standalone="no"?>
<svg
   xmlns:dc="http://purl.org/dc/elements/1.1/"
   xmlns:cc="http://creativecommons.org/ns#"
   xmlns:rdf="http://www.w3.org/1999/02/22-rdf-syntax-ns#"
   xmlns:svg="http://www.w3.org/2000/svg"
   xmlns="http://www.w3.org/2000/svg"
   viewBox="0 0 933.46039 199.13936"
   height="199.13936"
   width="933.46039"
   xml:space="preserve"
   id="svg2"
   version="1.1"><metadata
     id="metadata8"><rdf:RDF><cc:Work
         rdf:about=""><dc:format>image/svg+xml</dc:format><dc:type
           rdf:resource="http://purl.org/dc/dcmitype/StillImage" /></cc:Work></rdf:RDF></metadata><defs
     id="defs6" /><g
     transform="matrix(1.3333333,0,0,-1.3333333,4.027142e-4,199.13892)"
     id="g10"><g
       transform="scale(0.1)"
       id="g12"><path
         id="path14"
         style="fill:#51bc37;fill-opacity:1;fill-rule:evenodd;stroke:none"
         d="M 316.715,839.434 C 96.7773,909.707 -25.9258,1102.5 8.125,1492.81 41.7695,1382.93 161.152,1335.59 262.582,1273.24 389.016,1195.52 490.73,1098.7 400.531,877.527 348.922,990.629 266.391,1084.21 166.52,1166.84 295.492,983.023 322.371,892.422 316.715,839.434" /><path
         id="path16"
         style="fill:none;stroke:#51bc37;stroke-width:5;stroke-linecap:butt;stroke-linejoin:miter;stroke-miterlimit:2.61310005;stroke-dasharray:none;stroke-opacity:1"
         d="M 316.715,839.434 C 96.7773,909.707 -25.9258,1102.5 8.125,1492.81 41.7695,1382.93 161.152,1335.59 262.582,1273.24 389.016,1195.52 490.73,1098.7 400.531,877.527 348.922,990.629 266.391,1084.21 166.52,1166.84 295.492,983.023 322.371,892.422 316.715,839.434 Z" /><path
         id="path18"
         style="fill:#51bc37;fill-opacity:1;fill-rule:evenodd;stroke:none"
         d="m 477.676,1027.06 c -37.578,100.67 -7.5,195.87 112.387,283.83 -26.372,-92.04 90.519,-245.36 -76.192,-300.97 20.848,46.72 32.352,95.65 23.309,149.4 -12.883,-61.54 -33.91,-102.64 -59.504,-132.26" /><path
         id="path20"
         style="fill:#100f0d;fill-opacity:1;fill-rule:evenodd;stroke:none"
         d="M 665.309,439.41 V 810.859 C 920.508,931.25 929.551,713.012 934.82,654.906 940.785,589.047 909.867,293.27 665.309,439.41 Z m -3.809,472.406 -17.145,51.43 H 488.152 l 11.434,-85.719 V 10.8086 H 667.211 V 317.5 c 146.82,-76.512 274.453,-33.551 350.399,47.078 73.61,78.133 97.86,191.363 94.11,283.395 -3.41,83.89 -21.49,173.429 -74.14,237.129 -76.971,93.097 -214.318,132.118 -376.08,26.714 v 0" /><path
         id="path22"
         style="fill:#100f0d;fill-opacity:1;fill-rule:evenodd;stroke:none"
         d="m 1616.8,637.516 c -232.44,9.656 -238.77,-132.551 -234.09,-162.875 4.98,-32.282 43.2,-142.2 234.09,-33.332 z m -303.55,129.574 -87.69,99.133 c 97.49,83.914 204.32,111.761 295.87,107.824 94.46,-4.063 233.15,-45.563 256.96,-161.203 9.94,-118.864 -1.2,-272.586 4.7,-392.434 1.09,-22.359 36.12,-30.832 90.61,-26.961 l 19.91,-66.98 c -116.88,-68.309 -211.06,-69.559 -272.05,27.222 -278.56,-186.89 -418.18,12.36 -411.19,93.84 5.11,59.485 -31.82,258.035 404.52,272.844 4.33,114.012 -55.31,129.289 -102.26,136.422 -56.78,8.629 -123.75,-15.082 -199.38,-89.707 v 0" /><path
         id="path24"
         style="fill:#100f0d;fill-opacity:1;fill-rule:evenodd;stroke:none"
         d="M 2133.97,1260.41 H 1966.34 V 397.5 c 5.24,-126.762 151.6,-152.629 301.93,-64.77 l -30.48,89.532 C 2180,394.238 2142.86,394.09 2135.88,434.641 l -1.91,825.769" /><path
         id="path26"
         style="fill:#100f0d;fill-opacity:1;fill-rule:evenodd;stroke:none"
         d="m 2486.38,696.566 h 245.72 c 4.74,136.125 -75.47,153.372 -126.73,150.485 -42.3,-2.383 -123.78,-16.266 -118.99,-150.485 z m 413.36,-106.679 h -411.46 c -0.57,-128.657 87.35,-181.996 150.08,-192.215 59.59,-9.703 123.65,12.558 192.8,93.156 l 91.43,-78.09 c -153.36,-217.429 -595.92,-199.019 -615.28,205.723 -7.51,289.238 220.66,356.707 326.16,356.273 92.34,-0.371 316.54,-28.937 266.27,-384.847 v 0" /><path
         id="path28"
         style="fill:#100f0d;fill-opacity:1;fill-rule:evenodd;stroke:none"
         d="m 3379.72,854.109 c 125.33,-3.75 136.17,-144.093 139.1,-216.418 3.33,-81.964 -27.05,-240.132 -148.58,-245.91 -153.25,9.899 -170.71,175.578 -164.5,262.297 4.82,67.438 44.37,215.727 173.98,200.031 z m -19,-576.609 c 412.84,-20.078 479.16,691.949 0,699.082 -442.89,-6.469 -447.33,-696.434 0,-699.082 v 0" /><path
         id="path30"
         style="fill:#100f0d;fill-opacity:1;fill-rule:evenodd;stroke:none"
         d="m 3897.89,980.391 h -118.1 l -14.38,-21.543 237.16,-672.149 h 116.76 l 237.64,675.598 -19.52,19.523 H 4221.72 L 4061.71,452.738 3897.89,980.391" /><path
         id="path32"
         style="fill:#45464a;fill-opacity:1;fill-rule:nonzero;stroke:none"
         d="m 3779.79,982.891 h 119.94 l 0.54,-1.766 161.41,-519.863 157.65,521.281 0.53,1.777 h 1.86 115.73 1.04 l 0.73,-0.73 19.52,-19.524 1.1,-1.105 -0.51,-1.484 -237.65,-675.598 -0.6,-1.68 h -1.75 -116.76 -1.77 l -0.59,1.672 -237.15,672.149 -0.41,1.168 0.69,1.046 14.38,21.543 0.75,1.114 z m 116.26,-5 h -114.94 l -12.94,-19.383 236.17,-669.309 h 113.23 l 236.52,672.434 -17.68,17.687 h -112.84 l -159.47,-527.3 -4.77,-0.008 -163.28,525.879 v 0" /><path
         id="path34"
         style="fill:#100f0d;fill-opacity:1;fill-rule:evenodd;stroke:none"
         d="m 4816.04,629.898 c -281.1,0.137 -284.15,-126.445 -287.63,-154.019 -4.02,-31.738 37.97,-175.707 287.63,-16.469 z m 9.53,-270.5 c -315.02,-205.886 -429.89,15.993 -432.24,69.934 -2.84,65.117 -5.11,292.484 420.81,288.188 33.09,191.968 -122.68,214.613 -321.48,83.832 l -69.02,83.8 c 117.03,93.649 229.34,114.313 322.37,102.383 82.07,-10.527 195.38,-50.898 199.57,-180.484 l 1.57,-388.672 c 4.09,-43.02 39.13,-47.609 91.56,-30.629 l 22.89,-65.59 c -44.02,-38.301 -97.45,-57.398 -144.28,-47.539 -37.58,7.91 -70.93,34.5 -91.75,84.777 v 0" /><path
         id="path36"
         style="fill:#100f0d;fill-opacity:1;fill-rule:evenodd;stroke:none"
         d="m 5275.24,1262.83 -17.64,18.19 h -98.71 l -13.35,-16.75 -1.85,-868.68 c 12.7,-117.461 102.54,-159.371 243.82,-85.711 l -17.84,82.18 c -59.94,-11.047 -100.03,-7.02 -96.45,30.203 l 2.02,840.568" /><path
         id="path38"
         style="fill:#100f0d;fill-opacity:1;fill-rule:evenodd;stroke:none"
         d="m 5580.6,1264.22 -17.65,18.19 h -98.71 l -13.36,-16.76 -1.85,-868.662 c 12.71,-117.468 102.55,-159.379 243.83,-85.726 l -17.84,82.179 c -59.94,-11.043 -100.03,-7.011 -96.46,30.207 l 2.04,840.572" /><path
         id="path40"
         style="fill:#100f0d;fill-opacity:1;fill-rule:evenodd;stroke:none"
         d="M 6518.06,981.344 H 6399 l -15.24,-22.86 245.73,-612.414 c 7.47,-92.742 -91.17,-294.1012 -244.04,-211.558 l -24.8,-12.442 -17.84,-105.5505 c 166.42,-39.7578 273.95,-13.82809 359.07,144.7695 l 299.07,796.246 -17.15,24.766 h -116.21 l -163.8,-499.082 -185.73,498.125" /><path
         id="path42"
         style="fill:none;stroke:#fcfdfe;stroke-width:10;stroke-linecap:butt;stroke-linejoin:miter;stroke-miterlimit:10;stroke-dasharray:none;stroke-opacity:1"
         d="m 6240.56,498.5 97.15,-78.102 1.97,-1.589 -1.61,-1.95 C 6283.39,350.75 6206.94,302.488 6123.88,282.68 c -77.13,-18.379 -160,-12.231 -236.52,26.898 h -0.04 c -26.2,13.922 -49.49,34.293 -69.52,59.371 -46.12,57.75 -74.99,140.606 -82.54,227.364 -7.55,86.738 6.19,177.472 45.27,251.031 19.09,35.949 44.26,67.797 75.93,93.101 l 0.04,0.028 c 53.32,40.636 131.1,61.187 207.83,53.89 36.72,-3.484 73.22,-13.351 106.7,-30.425 33.5,-17.098 64.01,-41.434 88.71,-73.848 45.44,-59.637 71.2,-146.598 59.83,-266.141 l -0.21,-2.265 h -2.27 -443.16 c 2.38,-69.004 19.83,-120.918 44.93,-157.774 30.53,-44.859 72.41,-67.422 112.14,-71.371 30.76,-3.059 63.94,-1.027 98.53,13.891 34.67,14.941 70.82,42.871 107.47,91.621 l 1.54,2.07 z m -367.89,222.027 c 4.85,81.27 48.44,132.176 101.7,153.621 21.14,8.52 43.82,12.375 66.22,11.633 22.38,-0.742 44.49,-6.093 64.48,-15.984 48.12,-23.828 83.97,-73.934 82.13,-149.477 l -0.07,-2.437 h -2.42 -309.55 -2.65 z m 459.93,-302.418 -93.17,74.903 c -36.71,-48.282 -73.02,-76.133 -107.93,-91.192 -35.48,-15.289 -69.49,-17.379 -100.99,-14.238 -41.09,4.078 -84.33,27.328 -115.77,73.52 -25.91,38.043 -43.81,91.675 -45.88,163.023 l -0.08,2.559 h 2.57 443.46 c 10.7,116.976 -14.59,202.046 -59.04,260.379 -24.21,31.781 -54.13,55.64 -87.02,72.417 -32.92,16.793 -68.8,26.497 -104.89,29.922 -75.49,7.18 -151.94,-12.984 -204.29,-52.863 -31.11,-24.84 -55.84,-56.168 -74.63,-91.535 -38.61,-72.668 -52.18,-162.422 -44.7,-248.262 7.47,-85.82 35.97,-167.711 81.47,-224.683 19.6,-24.559 42.37,-44.477 67.96,-58.071 h -0.01 c 75.37,-38.519 157.03,-44.547 233.06,-26.449 81.21,19.359 155.99,66.25 209.88,130.57 z" /><path
         id="path44"
         style="fill:#100f0d;fill-opacity:1;fill-rule:evenodd;stroke:none"
         d="m 5875.16,720.375 c 13.17,220.492 314.78,214.145 309.55,0 z m 460.98,-301.926 -97.15,78.098 c -73.88,-98.266 -145.96,-112.695 -208.24,-106.496 -73.86,7.359 -154.87,77.75 -159.4,234.133 h 445.74 c 36.39,382.566 -309.07,428.596 -459.07,314.3 C 5670,788.352 5713.63,404.691 5888.5,311.781 c 157.8,-80.672 342.89,-20.019 447.64,106.668 v 0" /></g></g></svg>